<svg width="777" height="549" viewBox="0 0 777 549" fill="none" xmlns="http://www.w3.org/2000/svg">
<g clip-path="url(#clip0_10_3691)">
<path d="M567.363 521.633H551.902L544.545 465.26H567.363V521.633Z" fill="#9E616A"/>
<path d="M575.523 546.956H564.436L562.457 537.06L557.388 546.956H527.983C526.573 546.956 525.2 546.53 524.065 545.74C522.93 544.951 522.091 543.839 521.672 542.567C521.252 541.295 521.274 539.929 521.733 538.669C522.193 537.41 523.067 536.322 524.226 535.565L547.709 520.233V510.229L572.408 511.623L575.523 546.956Z" fill="#2F2E41"/>
<path d="M659.212 503.188L646.805 511.909L605.318 470.823L623.629 457.951L659.212 503.188Z" fill="#9E616A"/>
<path d="M681.743 518.905L672.847 525.16L665.012 518.335L667.191 529.135L643.595 545.723C642.464 546.518 641.093 546.951 639.684 546.958C638.274 546.965 636.9 546.545 635.76 545.761C634.62 544.977 633.776 543.869 633.35 542.599C632.923 541.329 632.938 539.963 633.391 538.701L642.557 513.152L636.242 505.124L656.942 492.309L681.743 518.905Z" fill="#2F2E41"/>
<path d="M585.362 230.776C585.362 230.776 614.695 254.734 601.161 323.032L584.638 389.952L638.524 474.464L621.342 494.224L551.29 402.75L525.904 346.458L518.781 246.269L585.362 230.776Z" fill="#2F2E41"/>
<path d="M539.896 362.5L538.132 388.331L543.531 498.406L568.938 494.223L573.793 415.851L539.896 362.5Z" fill="#2F2E41"/>
<path d="M213.856 534.887L227.682 534.886L234.259 484.473L213.854 484.474L213.856 534.887Z" fill="#FFB6B6"/>
<path d="M210.33 530.62L214.222 530.62L229.415 524.779L237.558 530.619H237.559C242.161 530.619 246.574 532.348 249.828 535.424C253.082 538.5 254.91 542.672 254.91 547.022V547.555L210.331 547.557L210.33 530.62Z" fill="#2F2E41"/>
<path d="M267.434 526.651L280.919 529.529L299.082 481.724L279.178 477.475L267.434 526.651Z" fill="#FFB6B6"/>
<path d="M264.988 521.754L268.784 522.564L284.964 520.031L291.547 527.423L291.548 527.423C296.036 528.382 299.939 530.987 302.396 534.665C304.853 538.343 305.664 542.793 304.651 547.037L304.527 547.557L261.042 538.275L264.988 521.754Z" fill="#2F2E41"/>
<path d="M196.346 226.685C189.864 245.167 190.549 265.229 197.904 286.76L201.048 407.987C201.048 407.987 196.364 487.486 211.48 515.461H233.402L244.256 400.727L245.619 323.717L292.617 388.688L262.682 513.585L289.663 515.865L338.239 380.323L278.306 248.823L196.346 226.685Z" fill="#2F2E41"/>
<path d="M449.156 174.042C465.924 159.758 490.864 152.575 511.785 160.585C490.325 171.849 473.771 189.925 465.052 211.616C461.721 219.993 458.939 229.638 450.748 234.123C445.651 236.914 439.309 237.05 433.594 235.703C427.879 234.356 422.64 231.655 417.473 228.981L416.003 228.95C422.603 208.544 432.388 188.326 449.156 174.042Z" fill="#E6E6E6"/>
<path d="M511.667 161.019C493.139 163.282 475.836 171.008 462.216 183.097C459.235 185.651 456.698 188.632 454.699 191.932C452.862 195.207 451.986 198.886 452.162 202.589C452.252 206.044 452.768 209.569 451.969 212.985C451.532 214.728 450.71 216.364 449.558 217.785C448.406 219.207 446.948 220.382 445.282 221.234C441.187 223.459 436.492 224.16 431.875 224.696C426.748 225.29 421.413 225.83 416.975 228.548C416.438 228.877 415.929 228.07 416.466 227.741C424.186 223.011 433.956 224.732 442.258 221.576C446.132 220.103 449.559 217.517 450.773 213.608C451.834 210.19 451.305 206.555 451.181 203.057C450.954 199.448 451.665 195.84 453.252 192.55C455.066 189.165 457.477 186.096 460.381 183.474C466.819 177.475 474.215 172.47 482.297 168.643C491.496 164.226 501.426 161.329 511.658 160.078C512.292 160.001 512.297 160.942 511.667 161.019H511.667Z" fill="white"/>
<path d="M466.359 178.96C464.524 176.525 463.664 173.552 463.933 170.572C464.203 167.592 465.583 164.8 467.829 162.694C468.285 162.27 469.005 162.92 468.548 163.345C466.453 165.302 465.167 167.903 464.922 170.678C464.677 173.453 465.49 176.22 467.213 178.478C467.587 178.969 466.731 179.449 466.359 178.96V178.96Z" fill="white"/>
<path d="M451.872 200.843C458.239 201.909 464.798 200.668 470.24 197.366C470.779 197.038 471.288 197.846 470.75 198.173C465.08 201.599 458.252 202.878 451.629 201.754C450.997 201.647 451.244 200.736 451.872 200.843V200.843Z" fill="white"/>
<path d="M491.577 165.47C492.079 166.553 492.858 167.5 493.844 168.227C494.829 168.955 495.99 169.439 497.223 169.638C497.855 169.738 497.608 170.649 496.979 170.55C495.619 170.325 494.337 169.788 493.246 168.987C492.156 168.185 491.289 167.144 490.723 165.953C490.659 165.845 490.642 165.718 490.674 165.598C490.706 165.478 490.785 165.374 490.895 165.308C491.008 165.245 491.143 165.226 491.271 165.257C491.399 165.287 491.509 165.364 491.577 165.47Z" fill="white"/>
<path d="M534.821 229.471C534.425 229.419 534.028 229.367 533.625 229.321C528.288 228.652 522.902 228.393 517.52 228.548C517.104 228.554 516.682 228.565 516.266 228.582C503.305 229.086 490.554 231.861 478.664 236.765C473.934 238.72 469.369 241.013 465.007 243.624C458.984 247.229 452.757 251.591 446.023 253.062C445.323 253.223 444.612 253.342 443.896 253.42L416.076 230.648C416.04 230.566 415.998 230.49 415.962 230.408L414.808 229.547C415.023 229.397 415.249 229.247 415.464 229.097C415.588 229.01 415.719 228.928 415.843 228.841C415.928 228.784 416.013 228.728 416.086 228.672C416.115 228.653 416.143 228.635 416.166 228.622C416.239 228.566 416.313 228.522 416.381 228.472C417.644 227.627 418.915 226.788 420.195 225.956C420.201 225.95 420.201 225.95 420.212 225.949C429.901 219.524 440.362 214.208 451.376 210.113C451.706 209.995 452.042 209.871 452.385 209.763C457.345 208.02 462.448 206.662 467.642 205.705C470.487 205.189 473.359 204.81 476.245 204.569C483.705 203.959 491.219 204.462 498.513 206.06C513.052 209.247 526.352 216.795 534.229 228.566C534.43 228.867 534.626 229.164 534.821 229.471Z" fill="#E6E6E6"/>
<path d="M534.453 229.753C518.218 221.015 499.482 217.335 480.908 219.235C476.902 219.577 472.977 220.514 469.28 222.012C465.728 223.58 462.685 226.019 460.467 229.076C458.338 231.886 456.506 234.994 453.692 237.267C452.233 238.41 450.535 239.248 448.71 239.728C446.884 240.207 444.972 240.316 443.099 240.047C438.413 239.493 434.217 237.381 430.19 235.18C425.718 232.736 421.114 230.131 415.84 229.776C415.201 229.733 415.309 228.798 415.947 228.841C425.124 229.459 431.828 236.394 440.467 238.599C444.498 239.628 448.881 239.514 452.34 237.084C455.364 234.959 457.257 231.755 459.385 228.892C461.503 225.88 464.368 223.405 467.73 221.681C471.335 220.011 475.215 218.932 479.203 218.492C488.164 217.366 497.256 217.58 506.147 219.124C516.305 220.833 526.078 224.172 535.045 228.997C535.6 229.296 535.005 230.05 534.453 229.754L534.453 229.753Z" fill="white"/>
<path d="M486.851 218.29C486.936 215.301 488.143 212.438 490.256 210.212C492.369 207.986 495.25 206.543 498.384 206.14C499.018 206.06 499.179 206.989 498.544 207.068C495.624 207.439 492.941 208.783 490.978 210.86C489.015 212.936 487.902 215.608 487.84 218.392C487.825 218.997 486.837 218.892 486.851 218.29Z" fill="white"/>
<path d="M461.348 227.517C465.752 231.992 471.78 234.734 478.228 235.195C478.867 235.24 478.759 236.175 478.121 236.13C471.412 235.638 465.145 232.773 460.573 228.106C460.137 227.661 460.915 227.074 461.348 227.517Z" fill="white"/>
<path d="M515.577 221.873C515.289 223.023 515.308 224.223 515.631 225.364C515.955 226.506 516.573 227.554 517.431 228.414C517.872 228.853 517.095 229.44 516.656 229.003C515.713 228.049 515.031 226.891 514.671 225.63C514.311 224.37 514.282 223.045 514.588 221.772C514.606 221.649 514.673 221.538 514.775 221.461C514.877 221.383 515.006 221.345 515.136 221.355C515.267 221.369 515.387 221.431 515.469 221.528C515.552 221.625 515.591 221.749 515.577 221.873Z" fill="white"/>
<path d="M46.1796 533.972C44.8736 538.604 41.4421 542.461 37.2991 545.271C36.6236 545.73 35.9301 546.156 35.2276 546.556C35.0114 546.675 34.7953 546.803 34.5701 546.914C34.3269 547.05 34.0838 547.178 33.8406 547.297H14.3594C14.0081 546.624 13.6659 545.943 13.3236 545.271C4.97452 528.684 -0.888754 510.787 0.110976 492.558C0.507604 485.487 2.07896 478.519 4.76737 471.91C10.1173 458.738 19.8804 447.337 33.3092 441.599C33.6424 441.454 33.9937 441.309 34.336 441.173C34.2279 441.539 34.1198 441.897 34.0117 442.263C32.571 447.169 31.553 452.178 30.9675 457.24C30.9134 457.631 30.8684 458.023 30.8324 458.423C29.5529 470.631 30.689 482.957 34.1828 494.771C34.1918 494.797 34.2008 494.831 34.2099 494.856C34.9755 497.47 35.8641 500.045 36.8758 502.579C37.6684 504.58 38.524 506.555 39.4607 508.497C43.3696 516.645 48.6113 525.33 46.1796 533.972Z" fill="#E6E6E6"/>
<path d="M34.5794 441.556C34.3903 441.795 34.2011 442.024 34.012 442.263C30.0561 447.219 26.697 452.576 23.9967 458.236C23.8526 458.517 23.7175 458.798 23.6004 459.087C19.9005 466.99 17.5243 475.39 16.5572 483.984C16.5468 484.043 16.5408 484.103 16.5392 484.162C16.3141 486.172 16.179 488.198 16.1249 490.225C15.9247 494.023 16.3593 497.828 17.4129 501.498C18.3735 504.495 20.0569 507.241 22.3305 509.519C22.5556 509.748 22.7808 509.978 23.024 510.2C23.2041 510.378 23.4022 510.557 23.5914 510.728C25.4107 512.371 27.4012 513.895 29.1124 515.657C29.8968 516.448 30.6051 517.303 31.229 518.212C32.2246 519.736 32.8678 521.442 33.1162 523.217C33.3646 524.993 33.2125 526.798 32.67 528.514C31.4451 532.823 28.6441 536.458 25.78 539.924C24.3479 541.661 22.8708 543.415 21.5919 545.271C21.1236 545.935 20.6913 546.608 20.295 547.297H19.1602C19.5385 546.608 19.9528 545.935 20.4031 545.271C23.6905 540.375 28.3649 536.169 30.7877 530.779C32.4269 527.143 32.9222 523.022 30.8507 519.455C30.2436 518.417 29.509 517.451 28.6621 516.577C27.0139 514.815 25.0415 513.307 23.2492 511.715C22.7989 511.315 22.3575 510.906 21.9342 510.481C19.69 508.325 17.9582 505.742 16.8545 502.903C15.6047 499.297 15.0138 495.517 15.1072 491.723C15.1072 489.305 15.2423 486.87 15.4945 484.452C15.5215 484.145 15.5576 483.83 15.5936 483.515C17.4355 468.299 23.5525 453.826 33.3095 441.599C33.4897 441.36 33.6788 441.13 33.8679 440.901C34.2552 440.424 34.9667 441.088 34.5794 441.556Z" fill="white"/>
<path d="M15.9571 484.532C12.8375 484.037 10.0057 482.51 7.96748 480.223C5.92925 477.936 4.8173 475.038 4.83019 472.048C4.83191 471.926 4.88363 471.809 4.97446 471.723C5.06529 471.636 5.18813 471.586 5.3171 471.584C5.44607 471.581 5.5711 471.626 5.66584 471.708C5.76059 471.791 5.81765 471.906 5.82501 472.027C5.80757 474.812 6.84364 477.511 8.74624 479.637C10.6488 481.763 13.2926 483.176 16.2005 483.621C16.8322 483.718 16.5853 484.629 15.9571 484.532V484.532Z" fill="white"/>
<path d="M22.0798 509.69C27.3798 506.188 31.0888 500.926 32.4672 494.953C32.6033 494.361 33.5677 494.592 33.4318 495.183C31.9852 501.396 28.1136 506.864 22.5898 510.497C22.0631 510.843 21.5559 510.034 22.0798 509.69L22.0798 509.69Z" fill="white"/>
<path d="M23.6989 458.136C24.8636 458.566 26.123 458.715 27.3639 458.571C28.6048 458.426 29.7883 457.993 30.8081 457.309C31.33 456.957 31.8366 457.767 31.3181 458.116C30.1876 458.867 28.8799 459.344 27.5093 459.507C26.1387 459.669 24.7469 459.512 23.4555 459.048C23.3299 459.014 23.2227 458.936 23.1557 458.83C23.0887 458.724 23.067 458.598 23.0949 458.477C23.1277 458.357 23.2096 458.253 23.3227 458.189C23.4358 458.125 23.571 458.106 23.6989 458.136Z" fill="white"/>
<path d="M102.146 474.481C101.831 474.711 101.507 474.941 101.191 475.18C96.9152 478.273 92.9121 481.69 89.2216 485.397C88.9333 485.678 88.6451 485.967 88.3659 486.257L88.3569 486.266C79.6061 495.246 72.6869 505.678 67.948 517.037L67.921 517.113C67.912 517.139 67.903 517.156 67.894 517.182C66.0156 521.728 64.5013 526.401 63.3637 531.162C62.2649 535.811 61.3642 540.792 59.644 545.271C59.3828 545.96 59.0946 546.642 58.7883 547.297H18.7451C18.8802 546.625 19.0243 545.943 19.1684 545.271C21.2054 535.405 24.389 525.782 28.6613 516.577C28.8055 516.27 28.9496 515.964 29.1117 515.657C31.3172 511.109 33.9107 506.738 36.8663 502.588C36.8663 502.587 36.8665 502.585 36.867 502.584C36.8674 502.583 36.8681 502.582 36.8689 502.582C36.8698 502.581 36.8708 502.58 36.8719 502.58C36.873 502.579 36.8742 502.579 36.8754 502.579C38.4983 500.315 40.2419 498.129 42.0992 496.032C46.916 490.614 52.6059 485.947 58.9595 482.204C58.9955 482.179 59.0405 482.161 59.0766 482.136C71.7218 474.72 86.7087 471.186 101.038 474.243H101.047C101.416 474.32 101.777 474.396 102.146 474.481Z" fill="#E6E6E6"/>
<path d="M102.102 474.933C101.796 475.009 101.489 475.094 101.192 475.18C94.88 476.885 88.7873 479.246 83.0259 482.221C82.7377 482.366 82.4494 482.519 82.1612 482.672C74.1991 486.873 66.9716 492.212 60.7346 498.501C60.7297 498.505 60.7265 498.511 60.7256 498.518C60.6535 498.586 60.5725 498.662 60.5094 498.731C59.0684 500.195 57.6814 501.719 56.3664 503.286C53.7942 506.207 51.7216 509.491 50.2239 513.018C49.0795 515.958 48.6755 519.109 49.0441 522.222C49.0711 522.537 49.1161 522.844 49.1611 523.159C49.1972 523.405 49.2332 523.652 49.2782 523.908C49.8727 527.322 50.8994 530.745 50.6112 534.227C50.4358 536.012 49.8628 537.741 48.9299 539.301C47.9969 540.861 46.7252 542.216 45.1983 543.278C44.1603 544.037 43.0508 544.704 41.8838 545.271C40.2153 546.084 38.4768 546.762 36.6871 547.297H33.1475C33.6248 547.169 34.0932 547.042 34.5705 546.914C36.2644 546.462 37.9277 545.913 39.5511 545.271C40.4786 544.904 41.381 544.483 42.2531 544.01C45.8737 542.044 48.891 539.029 49.5214 535.002C50.0708 531.477 49.008 527.952 48.3776 524.504C48.2695 523.908 48.1704 523.32 48.1164 522.733C47.6864 519.747 47.9476 516.708 48.8819 513.827C50.1779 510.233 52.1152 506.875 54.6101 503.899C56.1534 501.961 57.8008 500.1 59.5457 498.322C59.7619 498.092 59.9871 497.862 60.2212 497.632C66.5894 491.299 73.9422 485.921 82.0261 481.685H82.0351C88.0459 478.521 94.4227 476.024 101.039 474.243H101.048C101.345 474.158 101.651 474.073 101.949 473.996C102.57 473.843 102.714 474.771 102.102 474.933Z" fill="white"/>
<path d="M59.8649 498.645C57.6896 496.474 56.4014 493.643 56.2304 490.657C56.0595 487.67 57.0169 484.724 58.9317 482.344C59.3209 481.863 60.1288 482.413 59.7391 482.894C57.9517 485.107 57.0602 487.852 57.2254 490.632C57.3906 493.412 58.6016 496.045 60.64 498.056C61.0824 498.493 60.3048 499.08 59.8649 498.645H59.8649Z" fill="white"/>
<path d="M48.7317 522.217C55.1939 522.437 61.5065 520.347 66.4109 516.362C66.8964 515.967 67.5195 516.7 67.0345 517.095C61.9228 521.232 55.3488 523.395 48.6246 523.152C47.9837 523.128 48.0943 522.193 48.7317 522.217Z" fill="white"/>
<path d="M82.857 481.976C83.5136 482.981 84.4241 483.817 85.5068 484.408C86.5896 484.999 87.8106 485.327 89.0603 485.361C89.7012 485.377 89.59 486.312 88.9532 486.296C87.5727 486.252 86.2247 485.889 85.0269 485.238C83.8291 484.588 82.818 483.67 82.082 482.565C82.0034 482.466 81.9674 482.343 81.9815 482.22C81.9956 482.098 82.0586 481.984 82.1577 481.904C82.2607 481.826 82.392 481.79 82.5229 481.804C82.6539 481.817 82.7739 481.879 82.857 481.976Z" fill="white"/>
<path d="M411.044 147.41C410.12 148.56 408.94 149.504 407.588 150.175C406.236 150.847 404.745 151.231 403.219 151.299C401.694 151.367 400.171 151.118 398.758 150.569C397.345 150.02 396.077 149.186 395.042 148.124L360.997 162.121L364.313 144.155L396.135 133.616C398.137 132.092 400.662 131.314 403.23 131.432C405.799 131.549 408.233 132.553 410.07 134.253C411.908 135.953 413.022 138.232 413.202 140.657C413.381 143.082 412.613 145.485 411.044 147.41Z" fill="#FFB8B8"/>
<path d="M388.325 153.02L309.249 186.319L309.079 186.261L218.953 155.9C212.24 152.583 207.122 146.966 204.647 140.198C202.172 133.43 202.527 126.024 205.64 119.496C207.365 115.889 209.879 112.668 213.016 110.046C216.153 107.424 219.842 105.459 223.84 104.282C227.838 103.105 232.054 102.741 236.211 103.216C240.369 103.69 244.372 104.991 247.959 107.033L315.03 145.229L380.068 137.26L388.325 153.02Z" fill="#E6E6E6"/>
<path d="M777 547.987C777.001 548.12 776.973 548.252 776.92 548.375C776.866 548.498 776.787 548.61 776.687 548.704C776.588 548.798 776.469 548.873 776.339 548.924C776.209 548.974 776.069 549 775.929 549H1.10204C0.81779 549 0.545188 548.893 0.34419 548.703C0.143192 548.513 0.0302734 548.256 0.0302734 547.987C0.0302734 547.718 0.143192 547.46 0.34419 547.27C0.545188 547.08 0.81779 546.974 1.10204 546.974H775.929C776.069 546.973 776.209 546.999 776.339 547.05C776.469 547.101 776.588 547.175 776.687 547.27C776.787 547.364 776.866 547.476 776.92 547.599C776.973 547.722 777.001 547.854 777 547.987Z" fill="#CCCCCC"/>
<path d="M282.215 252.706L202.502 240.652C200.411 240.019 198.49 238.966 196.871 237.565C195.251 236.164 193.972 234.448 193.12 232.535C192.268 230.623 191.864 228.558 191.936 226.484C192.008 224.41 192.553 222.375 193.535 220.519L197.15 213.683L195.746 141.867C195.577 132.525 198.013 123.306 202.809 115.137C207.606 106.968 214.593 100.137 223.069 95.332L230.842 90.938L234.771 81.5068L270.995 82.3421L271.101 94.7113L284.074 114.268L284.073 114.349L283.259 220.791L279.684 231.776L285.09 244.552L282.215 252.706Z" fill="#E6E6E6"/>
<path d="M256.2 69.7795C274.378 69.7795 289.114 55.8487 289.114 38.6642C289.114 21.4796 274.378 7.54883 256.2 7.54883C238.022 7.54883 223.286 21.4796 223.286 38.6642C223.286 55.8487 238.022 69.7795 256.2 69.7795Z" fill="#FFB8B8"/>
<path d="M221.927 45.4469C220.945 41.5372 221.396 36.0355 221.951 32.0988C223.405 21.7782 229.468 11.9666 238.679 6.1549C240.426 4.90086 242.501 4.12118 244.682 3.89988C246.861 3.81389 249.223 4.91666 249.892 6.87909C250.44 5.58388 251.264 4.40877 252.312 3.42629C253.36 2.44381 254.61 1.6748 255.985 1.16674C258.746 0.166595 261.716 -0.211636 264.659 0.0620279C270.363 0.506516 275.833 2.40262 280.49 5.54911C285.146 8.69559 288.814 12.9751 291.105 17.9334C291.984 19.9077 294.44 12.6151 295.554 14.4806C296.577 16.4196 298.363 17.9029 300.529 18.613C302.711 19.1887 303.598 27.6897 304.457 25.7074C305.123 27.1724 305.386 28.7729 305.222 30.36C305.058 31.9471 304.472 33.4692 303.518 34.7844C302.564 36.0996 301.274 37.1652 299.767 37.882C298.26 38.5988 296.586 38.9434 294.9 38.8837C292.679 38.8052 290.555 38.0327 288.36 37.7002C280.51 36.5113 272.184 41.892 270.506 49.2378C269.905 47.1135 268.945 45.0949 267.664 43.2598C267.013 42.3471 266.141 41.5945 265.121 41.0645C264.101 40.5345 262.961 40.2425 261.797 40.2128C259.564 40.2918 257.601 41.6721 256.152 43.2805C254.703 44.8889 253.615 46.7655 252.155 48.3652C247.872 53.0592 242.079 64.006 235.975 63.2076C231.158 62.5776 223.267 50.7851 221.927 45.4469Z" fill="#2F2E41"/>
<path d="M455.16 182.669C455.39 181.251 455.082 179.801 454.289 178.577C453.497 177.353 452.271 176.434 450.83 175.983L362.194 148.075C361.344 147.806 360.444 147.708 359.552 147.788L337.336 149.774L324.588 150.917L301.064 153.019C299.644 153.147 298.309 153.718 297.268 154.641C296.228 155.564 295.54 156.787 295.315 158.119L283.371 228.65C283.145 230.026 283.422 231.434 284.156 232.64C284.89 233.847 286.038 234.781 287.41 235.288L376.971 267.97C377.392 268.125 377.828 268.236 378.274 268.301C378.923 268.4 379.583 268.405 380.233 268.315L438.106 260.206C439.471 260.02 440.736 259.422 441.713 258.502C442.69 257.582 443.327 256.388 443.53 255.098L455.16 182.669Z" fill="white"/>
<path d="M289.44 230.319L379.001 262.999C379.132 263.048 379.274 263.064 379.413 263.045L437.278 254.937C437.449 254.915 437.608 254.84 437.731 254.725C437.854 254.609 437.933 254.459 437.957 254.297L449.594 181.867C449.62 181.691 449.581 181.511 449.482 181.358C449.384 181.206 449.232 181.09 449.054 181.032L448.458 180.841L360.412 153.13C360.372 153.117 360.33 153.107 360.288 153.102C360.22 153.09 360.15 153.087 360.081 153.092L305.894 157.939L301.594 158.321C301.417 158.338 301.252 158.41 301.122 158.525C300.993 158.64 300.907 158.792 300.878 158.957L288.936 229.486C288.907 229.658 288.941 229.835 289.033 229.986C289.124 230.138 289.268 230.255 289.44 230.319Z" fill="#8D28AD"/>
<path d="M305.894 157.939L360.081 153.092C360.15 153.087 360.22 153.09 360.288 153.102C360.33 153.107 360.372 153.117 360.412 153.13L448.458 180.841L425.233 183.165L416.541 184.031L391.809 186.501C391.737 186.505 391.664 186.504 391.592 186.499C391.548 186.486 391.504 186.474 391.451 186.46L305.894 157.939Z" fill="#2F2E41"/>
<path d="M287.408 235.293L376.969 267.973C377.391 268.127 377.829 268.235 378.276 268.297C378.924 268.398 379.586 268.406 380.237 268.32L438.101 260.212C439.467 260.024 440.732 259.425 441.71 258.505C442.688 257.584 443.326 256.39 443.531 255.1L455.158 182.67C455.33 181.602 455.2 180.51 454.781 179.505C454.723 179.371 454.664 179.238 454.595 179.112C454.134 178.194 453.432 177.404 452.556 176.815C452.029 176.457 451.447 176.177 450.831 175.984L450.726 175.948L362.198 148.074C361.837 147.965 361.467 147.88 361.093 147.82C360.581 147.752 360.063 147.742 359.549 147.792L337.336 149.771L324.589 150.921L301.061 153.021C300.099 153.106 299.169 153.396 298.343 153.87C298.279 153.899 298.218 153.934 298.16 153.973C298.119 153.999 298.08 154.027 298.043 154.057C297.322 154.523 296.708 155.123 296.239 155.82C295.77 156.517 295.457 157.297 295.317 158.113L283.366 228.65C283.14 230.026 283.417 231.435 284.152 232.643C284.887 233.85 286.035 234.785 287.408 235.293ZM296.903 158.359C297.048 157.513 297.445 156.725 298.047 156.084C298.229 155.878 298.433 155.69 298.655 155.523C299.263 155.059 299.981 154.742 300.748 154.601C300.899 154.571 301.052 154.551 301.207 154.539L340.822 151.001L359.704 149.303C359.832 149.289 359.949 149.291 360.067 149.284C360.353 149.279 360.639 149.299 360.921 149.344C361.18 149.376 361.435 149.434 361.682 149.516L450.314 177.425C450.384 177.448 450.445 177.471 450.515 177.495C451.321 177.778 452.029 178.265 452.562 178.903C452.984 179.391 453.291 179.957 453.465 180.566C453.639 181.174 453.676 181.81 453.572 182.432L441.935 254.87C441.782 255.836 441.305 256.73 440.574 257.421C439.842 258.111 438.896 258.56 437.874 258.703L380 266.81C379.172 266.922 378.328 266.831 377.548 266.546L287.986 233.874C286.959 233.491 286.101 232.79 285.551 231.886C285.001 230.982 284.793 229.927 284.96 228.896L296.903 158.359Z" fill="#3F3D56"/>
<path d="M297.851 154.441C297.898 154.313 297.982 154.199 298.092 154.112C298.129 154.085 298.168 154.06 298.208 154.037C298.246 154.024 298.284 154.001 298.322 153.988C298.502 153.919 298.702 153.916 298.884 153.979L300.748 154.6L391.819 184.971L413.133 182.842L425.06 181.653L450.305 179.126L452.562 178.902L453.001 178.857C453.19 178.84 453.38 178.887 453.536 178.988C453.693 179.09 453.807 179.24 453.859 179.413C453.871 179.453 453.879 179.494 453.883 179.535C453.901 179.699 453.863 179.864 453.774 180.006C453.684 180.147 453.549 180.257 453.387 180.32C453.316 180.348 453.241 180.367 453.164 180.377L450.094 180.681L425.233 183.165L416.541 184.031L391.809 186.501C391.737 186.504 391.664 186.504 391.592 186.499C391.548 186.486 391.504 186.474 391.451 186.46L298.655 155.523L298.34 155.418C298.268 155.395 298.201 155.36 298.143 155.314C298.002 155.217 297.898 155.08 297.846 154.923C297.793 154.766 297.795 154.597 297.851 154.441Z" fill="#3F3D56"/>
<path d="M378.52 268.518C378.31 268.487 378.122 268.378 377.997 268.216C377.872 268.054 377.819 267.852 377.851 267.653L390.926 185.63C390.957 185.431 391.072 185.251 391.244 185.131C391.415 185.012 391.63 184.961 391.841 184.991L391.849 184.992C392.058 185.024 392.246 185.133 392.371 185.295C392.497 185.457 392.549 185.659 392.517 185.857L379.443 267.88C379.411 268.08 379.296 268.259 379.125 268.379C378.953 268.499 378.738 268.549 378.527 268.519L378.52 268.518Z" fill="#3F3D56"/>
<path d="M411.661 263.315L402.966 264.182L413.137 182.84C413.137 182.84 424.751 180.852 425.061 181.649C425.253 182.125 411.744 262.793 411.661 263.315Z" fill="#3F3D56"/>
<path d="M298.343 155.417L298.108 192.512L367.573 217.534L392.518 185.857L298.343 155.417Z" fill="#3F3D56"/>
<path d="M452.565 178.904C451.984 178.214 451.203 177.7 450.316 177.425L361.686 149.517C361.438 149.437 361.182 149.379 360.923 149.341C360.64 149.295 360.353 149.274 360.066 149.28L360.21 148.431L361.097 147.824L382.144 133.418L452.432 153.782L452.554 176.815L452.565 178.904Z" fill="#3F3D56"/>
<path d="M301.883 214.967C301.983 214.976 302.081 214.995 302.176 215.025L329.37 223.469C329.711 223.574 329.993 223.803 330.155 224.106C330.317 224.408 330.345 224.759 330.233 225.08C330.121 225.402 329.879 225.669 329.559 225.822C329.239 225.975 328.868 226.001 328.528 225.896L301.334 217.452C301.018 217.354 300.752 217.149 300.585 216.877C300.419 216.605 300.365 216.285 300.433 215.977C300.501 215.67 300.686 215.397 300.954 215.21C301.221 215.024 301.552 214.937 301.883 214.967H301.883Z" fill="white"/>
<path d="M411.604 370.58C417.573 370.58 422.412 366.005 422.412 360.362C422.412 354.719 417.573 350.145 411.604 350.145C405.635 350.145 400.796 354.719 400.796 360.362C400.796 366.005 405.635 370.58 411.604 370.58Z" fill="#F2F2F2"/>
<path d="M136.002 408.043C141.971 408.043 146.81 403.469 146.81 397.826C146.81 392.183 141.971 387.608 136.002 387.608C130.033 387.608 125.194 392.183 125.194 397.826C125.194 403.469 130.033 408.043 136.002 408.043Z" fill="#F2F2F2"/>
<path d="M361.166 70.0192C367.135 70.0192 371.974 65.4447 371.974 59.8018C371.974 54.1589 367.135 49.5845 361.166 49.5845C355.197 49.5845 350.358 54.1589 350.358 59.8018C350.358 65.4447 355.197 70.0192 361.166 70.0192Z" fill="#F2F2F2"/>
<path d="M378.899 229.994C377.499 230.569 375.981 230.847 374.455 230.808C372.928 230.769 371.429 230.414 370.063 229.768C368.697 229.122 367.497 228.201 366.549 227.069C365.6 225.938 364.926 224.623 364.572 223.219L327.635 219.691L339.821 205.551L373.029 211.069C375.565 210.665 378.169 211.154 380.349 212.443C382.529 213.733 384.132 215.734 384.856 218.067C385.579 220.399 385.373 222.902 384.275 225.1C383.177 227.298 381.264 229.039 378.899 229.994Z" fill="#FFB8B8"/>
<path d="M356.18 224.385L269.98 216.876L269.861 216.748L206.95 148.601C202.81 142.604 201.251 135.339 202.593 128.291C203.934 121.243 208.075 114.947 214.167 110.692C217.538 108.343 221.397 106.696 225.489 105.859C229.582 105.022 233.816 105.013 237.912 105.834C242.008 106.656 245.874 108.288 249.255 110.623C252.636 112.958 255.456 115.944 257.528 119.384L296.276 183.706L357.13 206.82L356.18 224.385Z" fill="#E6E6E6"/>
<path d="M572.539 93.3326C570.399 78.4886 567.714 62.5514 556.639 51.8358C553.125 48.4358 548.919 45.7437 544.275 43.9218C539.63 42.1 534.644 41.1861 529.616 41.2353C524.588 41.2845 519.622 42.2957 515.019 44.2081C510.416 46.1204 506.269 48.8942 502.83 52.3623C494.769 60.4926 491.209 71.9087 490.883 83.0483C490.557 94.1878 493.181 105.204 496.093 116.002C511.499 116.293 526.792 113.448 540.933 107.659C544.469 106.208 547.948 104.567 551.684 103.668C555.419 102.769 558.082 105.031 561.558 106.609L563.465 103.156C565.027 105.903 569.862 105.089 571.616 102.447C573.369 99.8056 572.985 96.4227 572.539 93.3326Z" fill="#2F2E41"/>
<path d="M511.469 176.186L448.535 177.458C447.568 175.879 446.137 174.599 444.415 173.774C442.694 172.95 440.755 172.616 438.837 172.814C436.918 173.012 435.102 173.733 433.608 174.889C432.115 176.045 431.009 177.586 430.426 179.325C429.842 181.064 429.806 182.926 430.322 184.685C430.837 186.443 431.882 188.022 433.329 189.229C434.777 190.436 436.564 191.22 438.474 191.484C440.383 191.748 442.333 191.482 444.086 190.718C452.433 191.167 517.734 199.929 521.63 194.282C525.584 188.551 546.69 168.325 546.69 168.325L530.467 146.49L511.469 176.186Z" fill="#9E616A"/>
<path d="M526.804 108.019C543.134 108.019 556.373 95.5039 556.373 80.0658C556.373 64.6278 543.134 52.1128 526.804 52.1128C510.474 52.1128 497.235 64.6278 497.235 80.0658C497.235 95.5039 510.474 108.019 526.804 108.019Z" fill="#9E616A"/>
<path d="M574.164 133.85C570.679 127.294 568.986 119.195 561.557 117.07C556.541 115.635 536.252 117.785 531.68 120.208C524.075 124.238 530.967 131.79 526.48 138.857C521.603 146.539 508.348 161.956 503.471 169.638C500.118 174.92 511.412 190.422 509.599 196.338C507.786 202.254 507.699 208.895 510.787 214.318C513.551 219.173 509.552 223.467 512.332 228.313C515.223 233.354 518.77 252.199 516.08 257.337L514.279 262.446C532.154 263.439 547.184 243.251 564.948 241.124C569.36 240.596 573.942 239.906 577.577 237.485C582.933 233.918 585.05 227.447 586.374 221.382C592.742 191.734 588.444 160.924 574.164 133.85Z" fill="#3F3D56"/>
<path d="M600.963 203.074C598.473 196.65 593.966 168.56 593.966 168.56L565.754 167.778L579.547 199.938L541.908 249.75C541.908 249.75 541.978 249.86 542.104 250.055C540.125 249.755 538.097 250.026 536.284 250.834C534.471 251.642 532.958 252.948 531.943 254.582C530.929 256.216 530.459 258.101 530.597 259.992C530.734 261.882 531.472 263.689 532.714 265.176C533.955 266.664 535.643 267.762 537.556 268.327C539.469 268.893 541.518 268.9 543.435 268.346C545.351 267.793 547.047 266.705 548.299 265.226C549.551 263.747 550.302 261.944 550.453 260.055C550.592 260.13 550.754 260.157 550.911 260.132C551.069 260.106 551.212 260.03 551.316 259.915C555.504 254.947 603.453 209.499 600.963 203.074Z" fill="#9E616A"/>
<path d="M603.831 185.334C601.242 175.002 598.633 164.614 594.267 154.831C589.901 145.048 583.651 135.807 574.861 129.198C572.05 127.085 568.908 125.22 565.385 124.563C561.862 123.906 557.892 124.641 555.418 127.101C551.459 131.038 552.65 137.357 554.102 142.613C558.384 158.109 562.666 173.606 566.948 189.102C579.313 187.863 591.679 186.624 604.044 185.385L603.831 185.334Z" fill="#3F3D56"/>
<path d="M563.036 83.9433C561.947 77.1811 560.809 70.3624 558.251 63.9951C555.693 57.6278 551.569 51.6641 545.654 48.0571C536.288 42.3464 524.163 43.4478 513.662 46.7327C505.541 49.2732 497.614 53.1344 491.888 59.342C486.161 65.5497 482.945 74.4073 485.075 82.524C496.276 80.0223 507.477 77.5205 518.678 75.0187L517.451 75.8378C521.129 77.5714 524.341 80.0744 526.843 83.1567C529.344 86.239 531.07 89.8196 531.89 93.6268C532.691 97.4801 532.576 101.454 531.553 105.26C530.53 109.066 528.626 112.61 525.976 115.635C533.615 113.073 541.255 110.511 548.894 107.949C553.609 106.368 558.655 104.546 561.451 100.49C564.693 95.7878 563.94 89.5551 563.036 83.9433Z" fill="#2F2E41"/>
</g>
<defs>
<clipPath id="clip0_10_3691">
<rect width="777" height="549" fill="white"/>
</clipPath>
</defs>
</svg>
