<svg width="45" height="45" viewBox="0 0 45 45" fill="none" xmlns="http://www.w3.org/2000/svg">
<path d="M21.6988 38.863C21.6988 38.863 17.892 35.7841 1.90335 34.2614V41.875H17.1306C17.9872 40.1103 19.7397 38.9549 21.6988 38.863Z" fill="#CEF0FF"/>
<path d="M23.2215 38.863C23.2215 38.863 27.0283 35.7841 43.017 34.2614V41.875H27.7897C26.9332 40.1103 25.1807 38.9549 23.2215 38.863Z" fill="#CEF0FF"/>
<path d="M1.90335 38.0682H11.8011V39.5909H1.90335V38.0682Z" fill="#58B1CC"/>
<path d="M33.1193 38.0682H43.017V39.5909H33.1193V38.0682Z" fill="#58B1CC"/>
<path d="M30.0738 38.0682H31.5965V39.5909H30.0738V38.0682Z" fill="#58B1CC"/>
<path d="M21.6988 28.9318C21.6988 28.9318 31.5965 22.8409 23.9829 15.9886C16.3693 9.13636 15.0841 4.56817 16.3693 0.761353C16.3693 0.761353 6.76782 10.3163 15.6079 18.2727C23.2215 25.125 21.6988 28.9318 21.6988 28.9318Z" fill="#DCD0F7"/>
<path d="M27.7897 15.2273C27.7897 15.2273 21.9958 11.7082 26.267 8.37499C30.5381 5.04179 30.7946 2.61309 30.0738 0.761353C30.0738 0.761353 36.5562 6.02696 31.5965 9.89772C27.3254 13.2309 27.7897 15.2273 27.7897 15.2273Z" fill="#DCD0F7"/>
<path d="M22.4602 20.5568H23.9829V22.0795H22.4602V20.5568Z" fill="#D9176C"/>
<path d="M20.1761 18.2727H21.6988V19.7955H20.1761V18.2727Z" fill="#D9176C"/>
<path d="M40.7329 19.7955C39.4715 19.7955 38.4488 18.7727 38.4488 17.5114C38.4488 17.0909 38.1079 16.75 37.6875 16.75C37.267 16.75 36.9261 17.0909 36.9261 17.5114C36.9261 18.7727 35.9034 19.7955 34.642 19.7955C34.2215 19.7955 33.8806 20.1364 33.8806 20.5568C33.8806 20.9773 34.2215 21.3182 34.642 21.3182C35.9034 21.3182 36.9261 22.3409 36.9261 23.6023C36.9261 24.0227 37.267 24.3636 37.6875 24.3636C38.1079 24.3636 38.4488 24.0227 38.4488 23.6023C38.4488 22.3409 39.4715 21.3182 40.7329 21.3182C41.1534 21.3182 41.4943 20.9773 41.4943 20.5568C41.4943 20.1364 41.1534 19.7955 40.7329 19.7955ZM37.6875 21.3416C37.4655 21.0431 37.2012 20.7788 36.9027 20.5568C37.2012 20.3349 37.4655 20.0706 37.6875 19.772C37.9094 20.0706 38.1737 20.3349 38.4723 20.5568C38.1737 20.7788 37.9094 21.0431 37.6875 21.3416Z" fill="#FFA451"/>
<path d="M15.6079 27.4091C14.3465 27.4091 13.3238 26.3864 13.3238 25.125C13.3238 24.7046 12.9829 24.3636 12.5624 24.3636C12.142 24.3636 11.8011 24.7046 11.8011 25.125C11.8011 26.3864 10.7784 27.4091 9.51698 27.4091C9.09652 27.4091 8.75562 27.75 8.75562 28.1705C8.75562 28.5909 9.09652 28.9318 9.51698 28.9318C10.7784 28.9318 11.8011 29.9545 11.8011 31.2159C11.8011 31.6364 12.142 31.9773 12.5624 31.9773C12.9829 31.9773 13.3238 31.6364 13.3238 31.2159C13.3238 29.9545 14.3465 28.9318 15.6079 28.9318C16.0284 28.9318 16.3693 28.5909 16.3693 28.1705C16.3693 27.75 16.0284 27.4091 15.6079 27.4091ZM12.5624 28.9553C12.3405 28.6567 12.0762 28.3924 11.7777 28.1705C12.0762 27.9485 12.3405 27.6842 12.5624 27.3857C12.7844 27.6842 13.0487 27.9485 13.3472 28.1705C13.0487 28.3924 12.7844 28.6567 12.5624 28.9553Z" fill="#FFA451"/>
<path d="M25.5056 3.04546C24.2442 3.04546 23.2215 2.02275 23.2215 0.761364C23.2215 0.340904 22.8806 0 22.4602 0C22.0397 0 21.6988 0.340904 21.6988 0.761364C21.6988 2.02275 20.6761 3.04546 19.4147 3.04546C18.9943 3.04546 18.6534 3.38636 18.6534 3.80682C18.6534 4.22728 18.9943 4.56819 19.4147 4.56819C20.6761 4.56819 21.6988 5.5909 21.6988 6.85228C21.6988 7.27274 22.0397 7.61364 22.4602 7.61364C22.8806 7.61364 23.2215 7.27274 23.2215 6.85228C23.2215 5.5909 24.2442 4.56819 25.5056 4.56819C25.9261 4.56819 26.267 4.22728 26.267 3.80682C26.267 3.38636 25.9261 3.04546 25.5056 3.04546ZM22.4602 4.59161C22.2382 4.29308 21.9739 4.02876 21.6754 3.80682C21.9739 3.58488 22.2382 3.32056 22.4602 3.02204C22.6821 3.32056 22.9464 3.58488 23.245 3.80682C22.9464 4.02876 22.6821 4.29308 22.4602 4.59161Z" fill="#FFA451"/>
<path d="M30.8352 14.4659H32.3579V15.9886H30.8352V14.4659Z" fill="#D9176C"/>
<path d="M30.8352 24.3636H32.3579V25.8864H30.8352V24.3636Z" fill="#D9176C"/>
<path d="M11.0397 20.5568H12.5624V22.0796H11.0397V20.5568Z" fill="#D9176C"/>
<path d="M18.6534 31.9773H20.1761V33.5H18.6534V31.9773Z" fill="#D9176C"/>
<path d="M4.18744 28.1705H5.71017V29.6932H4.18744V28.1705Z" fill="#D9176C"/>
<path d="M29.3125 30.4546C29.3125 31.2955 28.6306 31.9773 27.7897 31.9773C26.9488 31.9773 26.267 31.2955 26.267 30.4546C26.267 29.6137 26.9488 28.9319 27.7897 28.9319C28.6306 28.9319 29.3125 29.6137 29.3125 30.4546Z" fill="#87CEE9"/>
<path d="M8.7556 17.5114C8.7556 18.3523 8.07379 19.0341 7.23287 19.0341C6.39195 19.0341 5.71014 18.3523 5.71014 17.5114C5.71014 16.6705 6.39195 15.9886 7.23287 15.9886C8.07379 15.9886 8.7556 16.6705 8.7556 17.5114Z" fill="#87CEE9"/>
<path d="M39.9715 9.89773C39.9715 10.7387 39.2897 11.4205 38.4488 11.4205C37.6079 11.4205 36.9261 10.7387 36.9261 9.89773C36.9261 9.05681 37.6079 8.375 38.4488 8.375C39.2897 8.375 39.9715 9.05681 39.9715 9.89773Z" fill="#87CEE9"/>
<path d="M25.5056 44.9205C25.5056 43.2386 24.142 41.875 22.4602 41.875C20.7783 41.875 19.4147 43.2386 19.4147 44.9205H0.380615V41.875L17.1306 41.875C17.892 40.3523 19.4147 38.8296 22.4602 38.8296C25.5056 38.8296 27.0283 40.3523 27.7897 41.875L44.5397 41.875V44.9205H25.5056Z" fill="#8D28AD"/>
<path d="M0.380615 41.875L6.47153 41.875V44.9205H0.380615V41.875Z" fill="#5C067C"/>
<path d="M38.4488 41.875L44.5397 41.875V44.9205H38.4488V41.875Z" fill="#5C067C"/>
</svg>
